<svg id="svg" version="1.1" xmlns="http://www.w3.org/2000/svg" xmlns:xlink="http://www.w3.org/1999/xlink" width="400" height="391.15044247787614" viewBox="0, 0, 400,391.15044247787614"><g id="svgg"><path id="path0" d="M45.401 13.898 C 28.412 17.707,17.404 28.828,13.901 45.720 C 13.019 49.972,12.997 341.061,13.878 345.597 C 17.806 365.820,32.781 377.857,54.012 377.857 C 74.079 377.857,88.189 367.442,93.470 348.732 L 94.521 345.010 94.521 195.890 L 94.521 46.771 93.618 43.360 C 89.796 28.914,79.770 18.593,65.715 14.636 C 61.084 13.332,49.760 12.921,45.401 13.898 M338.160 13.559 C 321.153 16.797,309.723 27.312,305.640 43.474 L 304.496 48.004 304.596 196.703 L 304.697 345.401 305.608 348.532 C 311.130 367.514,325.008 377.844,345.010 377.857 C 365.290 377.870,379.599 367.254,384.800 348.337 L 385.714 345.010 385.836 197.260 C 385.928 85.336,385.845 48.846,385.497 46.771 C 382.865 31.107,371.993 18.882,356.921 14.640 C 353.308 13.622,341.423 12.938,338.160 13.559 " stroke="none" fill="#fcfcfc" fill-rule="evenodd"></path><path id="path1" d="M200.978 50.428 C 199.941 51.063,197.015 54.836,187.867 67.330 C 186.468 69.241,183.721 72.970,181.764 75.617 C 177.547 81.320,155.175 111.608,137.802 135.135 C 120.358 158.757,121.154 157.426,122.090 161.409 C 122.609 163.615,123.255 164.070,129.550 166.661 C 135.246 169.006,158.913 178.725,170.254 183.378 C 173.591 184.747,180.548 187.604,185.714 189.729 L 195.108 193.591 195.303 231.727 C 195.508 271.656,195.477 270.999,197.256 272.603 C 198.465 273.692,202.508 273.713,203.914 272.637 C 204.452 272.225,208.063 267.580,211.937 262.316 C 224.958 244.625,239.419 225.014,246.200 215.851 C 248.271 213.053,254.190 205.039,259.353 198.043 C 264.516 191.047,271.542 181.536,274.966 176.908 C 282.622 166.560,282.675 166.464,282.491 163.297 C 282.276 159.585,282.594 159.773,262.786 151.636 C 253.117 147.664,242.652 143.356,239.530 142.063 C 236.409 140.770,228.307 137.436,221.526 134.654 L 209.198 129.595 209.002 91.314 C 208.789 49.648,208.895 51.452,206.597 50.264 C 205.096 49.488,202.385 49.567,200.978 50.428 " stroke="none" fill="#3c84fc" fill-rule="evenodd"></path></g></svg>